<svg xmlns="http://www.w3.org/2000/svg"  viewBox="0 0 50 50" width="150px" height="150px"><path d="M 45.953125 46 L 34 46 C 33.554688 46 33.164063 45.707031 33.039063 45.277344 L 24.960938 17.449219 L 20.363281 32 L 28.53125 32 C 28.9375 32 29.300781 32.242188 29.457031 32.617188 C 29.613281 32.992188 29.527344 33.421875 29.238281 33.707031 L 16.707031 45.707031 C 16.519531 45.894531 16.265625 46 16 46 L 4.046875 46 C 3.726563 46 3.425781 45.847656 3.238281 45.589844 C 3.050781 45.328125 2.996094 44.996094 3.097656 44.691406 L 16.046875 4.691406 C 16.183594 4.277344 16.566406 4 17 4 L 33 4 C 33.433594 4 33.816406 4.277344 33.949219 4.691406 L 46.902344 44.691406 C 47.003906 44.996094 46.949219 45.328125 46.761719 45.589844 C 46.574219 45.847656 46.273438 46 45.953125 46 Z"/></svg>